<svg id="svg" version="1.1" xmlns="http://www.w3.org/2000/svg" xmlns:xlink="http://www.w3.org/1999/xlink" width="400" height="174.33962264150944" viewBox="0, 0, 400,174.33962264150944"><g id="svgg"><path id="path0" d="M239.241 65.383 C 239.079 65.483,238.977 66.482,238.873 68.986 C 238.794 70.891,238.611 74.568,238.466 77.158 C 238.322 79.747,238.180 82.964,238.151 84.307 L 238.099 86.748 239.423 86.798 L 240.746 86.849 240.949 84.183 C 241.061 82.717,241.153 80.728,241.152 79.763 C 241.150 77.236,241.037 77.319,244.158 77.567 C 249.972 78.028,250.384 77.947,250.390 76.340 C 250.393 75.510,250.489 75.545,247.857 75.408 C 246.614 75.343,244.695 75.239,243.592 75.178 L 241.587 75.065 241.622 72.886 C 241.641 71.687,241.708 70.052,241.770 69.252 L 241.882 67.798 244.350 67.905 C 245.707 67.963,247.979 68.100,249.397 68.209 C 252.304 68.432,252.237 68.455,252.352 67.168 C 252.465 65.916,252.706 65.975,246.196 65.661 C 243.086 65.511,240.298 65.356,240.002 65.317 C 239.707 65.277,239.364 65.307,239.241 65.383 M204.010 75.174 C 197.270 75.575,195.229 75.706,194.084 75.815 L 192.789 75.937 192.820 77.158 C 192.856 78.562,193.130 82.961,193.379 86.138 C 193.473 87.337,193.549 88.827,193.548 89.451 C 193.546 90.449,193.685 92.498,194.008 96.231 L 194.104 97.344 195.348 97.229 C 196.032 97.165,196.649 97.056,196.718 96.987 C 196.838 96.867,196.674 92.737,196.413 89.340 L 196.291 87.747 197.317 87.645 C 198.631 87.514,202.771 87.262,204.498 87.208 L 205.248 87.184 205.196 86.094 L 205.144 85.004 203.226 85.012 C 202.171 85.016,200.163 85.087,198.763 85.169 L 196.218 85.318 196.111 84.376 C 196.052 83.859,195.950 82.251,195.885 80.803 L 195.766 78.170 196.444 78.057 C 196.818 77.995,198.619 77.862,200.448 77.762 C 202.277 77.661,204.278 77.524,204.895 77.456 L 206.016 77.332 206.068 76.417 C 206.146 75.062,206.125 75.049,204.010 75.174 M60.165 75.854 C 56.857 76.555,54.659 79.459,55.255 82.342 C 55.804 85.001,57.395 86.295,61.925 87.766 C 66.271 89.178,67.132 89.883,67.132 92.032 C 67.132 93.725,66.312 94.637,64.343 95.135 C 61.077 95.961,57.785 94.436,57.376 91.908 L 57.275 91.282 55.987 91.230 C 54.416 91.167,54.358 91.218,54.640 92.418 C 56.450 100.109,70.695 99.127,70.043 91.356 C 69.796 88.408,67.844 86.779,62.674 85.208 C 58.673 83.992,57.346 82.441,58.317 80.116 C 59.700 76.808,66.467 77.525,67.051 81.042 C 67.240 82.181,67.188 82.146,68.655 82.091 L 70.009 82.040 69.956 81.255 C 69.889 80.265,69.243 78.908,68.370 77.921 C 67.790 77.265,67.256 76.926,65.332 75.987 C 64.867 75.760,61.070 75.662,60.165 75.854 M328.726 87.402 L 328.771 98.082 335.484 98.082 L 342.197 98.082 342.197 96.949 L 342.197 95.815 336.835 95.769 L 331.473 95.723 331.473 92.082 C 331.473 88.924,331.510 88.428,331.749 88.336 C 331.901 88.278,333.980 88.230,336.370 88.230 L 340.715 88.230 340.715 87.097 L 340.715 85.963 336.290 85.963 C 330.914 85.963,331.452 86.378,331.513 82.279 L 331.561 79.076 336.792 78.989 L 342.023 78.901 342.075 77.812 L 342.126 76.722 335.404 76.722 L 328.681 76.722 328.726 87.402 M285.163 83.587 C 285.113 83.718,285.158 85.347,285.263 87.205 C 285.988 99.964,286.300 104.504,286.461 104.665 C 286.708 104.912,299.062 104.171,299.230 103.899 C 299.338 103.725,299.229 101.983,299.102 101.841 C 299.064 101.799,297.132 101.873,294.808 102.006 C 288.744 102.354,289.232 102.384,289.079 101.653 C 289.008 101.315,288.867 99.549,288.766 97.729 C 288.500 92.934,288.086 86.264,287.957 84.699 L 287.845 83.348 286.550 83.348 C 285.614 83.348,285.230 83.414,285.163 83.587 M106.452 90.410 C 102.182 91.501,100.179 94.519,99.702 100.581 C 99.224 106.667,100.965 110.164,105.348 111.912 C 107.665 112.837,111.955 112.006,113.707 110.293 C 114.832 109.193,116.290 106.119,115.881 105.710 C 115.112 104.940,112.816 105.629,112.816 106.630 C 112.816 106.880,112.261 107.911,111.760 108.592 C 110.956 109.685,108.083 110.224,106.149 109.644 C 104.818 109.246,103.644 107.892,102.851 105.841 C 102.504 104.943,102.566 98.946,102.937 97.646 C 103.087 97.119,103.266 96.491,103.334 96.251 C 104.790 91.137,112.292 91.393,113.366 96.594 C 113.607 97.760,113.692 97.814,115.301 97.818 L 116.303 97.820 116.303 97.106 C 116.303 92.625,111.242 89.185,106.452 90.410 M147.079 92.050 L 146.033 92.153 146.084 100.087 C 146.137 108.377,146.180 108.891,146.940 110.238 C 149.880 115.454,159.702 114.553,161.247 108.925 C 161.659 107.424,161.678 106.826,161.552 99.437 L 161.423 91.878 160.093 91.929 L 158.762 91.979 158.675 100.174 L 158.588 108.370 158.152 109.136 C 156.889 111.357,152.772 112.177,150.807 110.599 C 148.890 109.060,148.883 109.021,148.752 99.479 C 148.663 92.990,148.614 91.981,148.387 91.965 C 148.243 91.955,147.655 91.994,147.079 92.050 " stroke="none" fill="#0a0a09" fill-rule="evenodd"></path><path id="path1" d="M230.340 57.018 C 230.340 57.114,230.105 57.193,229.817 57.193 C 229.529 57.193,229.294 57.271,229.294 57.367 C 229.294 57.463,229.115 57.541,228.896 57.541 C 228.678 57.541,228.386 57.698,228.248 57.890 C 228.109 58.082,227.857 58.239,227.686 58.239 C 227.515 58.239,227.376 58.357,227.376 58.500 C 227.376 58.644,227.297 58.762,227.201 58.762 C 227.105 58.762,227.027 58.885,227.027 59.036 C 227.027 59.349,226.620 59.808,226.342 59.808 C 226.239 59.808,226.155 60.083,226.155 60.418 C 226.155 60.754,226.077 61.029,225.981 61.029 C 225.878 61.029,225.806 61.639,225.806 62.511 C 225.806 63.383,225.735 63.993,225.632 63.993 C 225.522 63.993,225.458 65.301,225.458 67.568 C 225.458 69.834,225.394 71.142,225.283 71.142 C 225.173 71.142,225.109 72.508,225.109 74.891 C 225.109 77.274,225.045 78.640,224.935 78.640 C 224.824 78.640,224.760 79.948,224.760 82.214 C 224.760 84.481,224.696 85.789,224.586 85.789 C 224.479 85.789,224.412 86.603,224.412 87.881 C 224.412 89.160,224.479 89.974,224.586 89.974 C 224.682 89.974,224.760 90.248,224.760 90.584 C 224.760 90.920,224.839 91.194,224.935 91.194 C 225.031 91.194,225.109 91.334,225.109 91.505 C 225.109 91.675,225.266 91.928,225.458 92.066 C 225.650 92.205,225.806 92.445,225.806 92.601 C 225.806 92.941,226.345 93.461,226.697 93.461 C 226.836 93.461,227.063 93.618,227.201 93.810 C 227.349 94.015,227.653 94.159,227.937 94.159 C 228.204 94.159,228.422 94.237,228.422 94.333 C 228.422 94.435,229.003 94.507,229.817 94.507 C 230.631 94.507,231.212 94.580,231.212 94.682 C 231.212 94.792,232.520 94.856,234.786 94.856 C 237.848 94.856,238.361 94.894,238.361 95.118 C 238.361 95.342,238.874 95.379,241.935 95.379 C 244.202 95.379,245.510 95.443,245.510 95.554 C 245.510 95.664,246.818 95.728,249.085 95.728 C 251.351 95.728,252.659 95.792,252.659 95.902 C 252.659 96.011,253.647 96.077,255.275 96.077 C 256.902 96.077,257.890 96.011,257.890 95.902 C 257.890 95.806,258.086 95.728,258.326 95.728 C 258.566 95.728,258.762 95.650,258.762 95.554 C 258.762 95.458,258.919 95.379,259.111 95.379 C 259.304 95.379,259.459 95.263,259.459 95.118 C 259.459 94.974,259.599 94.856,259.770 94.856 C 259.940 94.856,260.193 94.699,260.331 94.507 C 260.470 94.316,260.649 94.159,260.731 94.159 C 260.976 94.159,261.378 93.679,261.378 93.386 C 261.378 93.236,261.456 93.112,261.552 93.112 C 261.648 93.112,261.726 92.916,261.726 92.677 C 261.726 92.437,261.805 92.241,261.901 92.241 C 262.001 92.241,262.075 91.688,262.075 90.933 C 262.075 90.177,262.149 89.625,262.249 89.625 C 262.360 89.625,262.424 88.259,262.424 85.876 C 262.424 83.493,262.487 82.127,262.598 82.127 C 262.709 82.127,262.772 80.820,262.772 78.553 C 262.772 76.286,262.836 74.978,262.947 74.978 C 263.057 74.978,263.121 73.677,263.121 71.422 C 263.121 68.422,263.162 67.851,263.383 67.766 C 263.598 67.683,263.644 67.233,263.644 65.219 C 263.644 63.161,263.603 62.772,263.383 62.772 C 263.208 62.772,263.121 62.598,263.121 62.249 C 263.121 61.962,263.043 61.726,262.947 61.726 C 262.851 61.726,262.772 61.569,262.772 61.378 C 262.772 61.186,262.694 61.029,262.598 61.029 C 262.502 61.029,262.424 60.868,262.424 60.672 C 262.424 60.253,261.687 59.459,261.298 59.459 C 261.150 59.459,261.029 59.381,261.029 59.285 C 261.029 59.189,260.911 59.111,260.767 59.111 C 260.623 59.111,260.506 59.032,260.506 58.936 C 260.506 58.840,260.270 58.762,259.983 58.762 C 259.634 58.762,259.459 58.675,259.459 58.500 C 259.459 58.289,259.180 58.239,257.988 58.239 C 257.178 58.239,256.467 58.160,256.408 58.065 C 256.342 57.957,254.924 57.890,252.736 57.890 C 250.476 57.890,249.172 57.826,249.172 57.716 C 249.172 57.605,247.864 57.541,245.597 57.541 C 243.330 57.541,242.023 57.478,242.023 57.367 C 242.023 57.256,240.657 57.193,238.274 57.193 C 235.891 57.193,234.525 57.129,234.525 57.018 C 234.525 56.912,233.711 56.844,232.432 56.844 C 231.154 56.844,230.340 56.912,230.340 57.018 M246.196 65.661 C 252.706 65.975,252.465 65.916,252.352 67.168 C 252.237 68.455,252.304 68.432,249.397 68.209 C 247.979 68.100,245.707 67.963,244.350 67.905 L 241.882 67.798 241.770 69.252 C 241.708 70.052,241.641 71.687,241.622 72.886 L 241.587 75.065 243.592 75.178 C 244.695 75.239,246.614 75.343,247.857 75.408 C 250.489 75.545,250.393 75.510,250.390 76.340 C 250.384 77.947,249.972 78.028,244.158 77.567 C 241.037 77.319,241.150 77.236,241.152 79.763 C 241.153 80.728,241.061 82.717,240.949 84.183 L 240.746 86.849 239.423 86.798 L 238.099 86.748 238.151 84.307 C 238.180 82.964,238.322 79.747,238.466 77.158 C 238.611 74.568,238.794 70.891,238.873 68.986 C 239.028 65.242,239.045 65.189,240.002 65.317 C 240.298 65.356,243.086 65.511,246.196 65.661 M208.893 66.783 C 208.893 66.893,207.759 66.957,205.841 66.957 C 203.923 66.957,202.790 67.022,202.790 67.132 C 202.790 67.241,201.686 67.306,199.826 67.306 C 197.307 67.306,196.861 67.345,196.861 67.568 C 196.861 67.791,196.387 67.829,193.636 67.829 C 191.601 67.829,190.410 67.894,190.410 68.003 C 190.410 68.113,189.276 68.178,187.358 68.178 C 185.440 68.178,184.307 68.243,184.307 68.352 C 184.307 68.448,183.993 68.527,183.609 68.527 C 183.226 68.527,182.912 68.605,182.912 68.701 C 182.912 68.797,182.733 68.875,182.515 68.875 C 182.296 68.875,182.004 69.032,181.866 69.224 C 181.727 69.416,181.475 69.573,181.304 69.573 C 181.134 69.573,180.994 69.657,180.994 69.760 C 180.994 70.001,180.550 70.445,180.309 70.445 C 180.206 70.445,180.122 70.602,180.122 70.793 C 180.122 70.985,180.044 71.142,179.948 71.142 C 179.852 71.142,179.773 71.299,179.773 71.491 C 179.773 71.683,179.695 71.840,179.599 71.840 C 179.503 71.840,179.425 72.193,179.425 72.624 C 179.425 73.056,179.346 73.409,179.250 73.409 C 179.149 73.409,179.076 73.961,179.076 74.717 C 179.076 75.472,179.149 76.024,179.250 76.024 C 179.360 76.024,179.425 77.216,179.425 79.250 C 179.425 81.285,179.489 82.476,179.599 82.476 C 179.708 82.476,179.773 83.577,179.773 85.430 C 179.773 87.211,179.843 88.427,179.948 88.492 C 180.053 88.557,180.122 89.772,180.122 91.553 C 180.122 94.063,180.161 94.507,180.384 94.507 C 180.607 94.507,180.645 94.982,180.645 97.733 C 180.645 99.768,180.710 100.959,180.820 100.959 C 180.915 100.959,180.994 101.312,180.994 101.744 C 180.994 102.175,181.072 102.528,181.168 102.528 C 181.264 102.528,181.343 102.668,181.343 102.839 C 181.343 103.009,181.500 103.262,181.691 103.400 C 181.883 103.538,182.040 103.751,182.040 103.873 C 182.040 104.202,182.601 104.795,182.912 104.795 C 183.062 104.795,183.297 104.952,183.435 105.144 C 183.573 105.336,183.826 105.493,183.997 105.493 C 184.167 105.493,184.307 105.571,184.307 105.667 C 184.307 105.763,184.660 105.841,185.092 105.841 C 185.523 105.841,185.876 105.920,185.876 106.016 C 185.876 106.114,186.370 106.190,187.010 106.190 C 187.649 106.190,188.143 106.114,188.143 106.016 C 188.143 105.906,189.247 105.841,191.107 105.841 C 192.967 105.841,194.071 105.776,194.071 105.667 C 194.071 105.557,195.263 105.493,197.297 105.493 C 199.332 105.493,200.523 105.428,200.523 105.318 C 200.523 105.209,201.656 105.144,203.575 105.144 C 205.493 105.144,206.626 105.079,206.626 104.969 C 206.626 104.860,207.817 104.795,209.852 104.795 C 212.603 104.795,213.078 104.757,213.078 104.534 C 213.078 104.345,213.271 104.272,213.775 104.272 C 214.159 104.272,214.473 104.194,214.473 104.098 C 214.473 104.002,214.730 103.923,215.044 103.923 C 215.416 103.923,215.704 103.801,215.867 103.575 C 216.006 103.383,216.225 103.226,216.354 103.226 C 216.705 103.226,217.088 102.777,217.088 102.366 C 217.088 102.168,217.172 102.005,217.275 102.005 C 217.553 102.005,217.960 101.546,217.960 101.233 C 217.960 101.082,218.038 100.959,218.134 100.959 C 218.230 100.959,218.309 100.606,218.309 100.174 C 218.309 99.743,218.387 99.390,218.483 99.390 C 218.581 99.390,218.657 98.896,218.657 98.256 C 218.657 97.617,218.581 97.123,218.483 97.123 C 218.373 97.123,218.309 95.960,218.309 93.984 C 218.309 92.008,218.244 90.846,218.134 90.846 C 218.025 90.846,217.960 89.712,217.960 87.794 C 217.960 85.876,217.895 84.743,217.786 84.743 C 217.676 84.743,217.611 83.637,217.611 81.773 C 217.611 79.294,217.568 78.787,217.350 78.703 C 217.131 78.619,217.088 78.095,217.088 75.483 C 217.088 73.519,217.023 72.363,216.914 72.363 C 216.818 72.363,216.739 71.931,216.739 71.404 C 216.739 70.876,216.661 70.445,216.565 70.445 C 216.469 70.445,216.391 70.266,216.391 70.047 C 216.391 69.829,216.234 69.537,216.042 69.398 C 215.850 69.260,215.693 69.041,215.693 68.912 C 215.693 68.587,215.255 68.178,214.908 68.178 C 214.585 68.178,214.124 67.775,214.124 67.493 C 214.124 67.390,213.967 67.306,213.775 67.306 C 213.583 67.306,213.426 67.228,213.426 67.132 C 213.426 67.036,213.073 66.957,212.642 66.957 C 212.210 66.957,211.857 66.879,211.857 66.783 C 211.857 66.680,211.247 66.609,210.375 66.609 C 209.503 66.609,208.893 66.680,208.893 66.783 M48.126 68.003 C 48.126 68.099,47.772 68.178,47.341 68.178 C 46.909 68.178,46.556 68.256,46.556 68.352 C 46.556 68.448,46.399 68.527,46.207 68.527 C 46.016 68.527,45.859 68.605,45.859 68.701 C 45.859 68.797,45.702 68.875,45.510 68.875 C 45.318 68.875,45.161 68.941,45.161 69.020 C 45.161 69.100,44.965 69.270,44.725 69.398 C 44.486 69.527,44.289 69.736,44.289 69.864 C 44.289 69.991,44.211 70.096,44.115 70.096 C 44.019 70.096,43.941 70.253,43.941 70.445 C 43.941 70.636,43.862 70.793,43.766 70.793 C 43.670 70.793,43.592 70.950,43.592 71.142 C 43.592 71.334,43.514 71.491,43.418 71.491 C 43.322 71.491,43.243 71.844,43.243 72.276 C 43.243 72.707,43.165 73.060,43.069 73.060 C 42.954 73.060,42.895 77.768,42.895 86.835 C 42.895 95.902,42.954 100.610,43.069 100.610 C 43.165 100.610,43.243 100.924,43.243 101.308 C 43.243 101.691,43.322 102.005,43.418 102.005 C 43.514 102.005,43.592 102.201,43.592 102.441 C 43.592 102.681,43.670 102.877,43.766 102.877 C 43.862 102.877,43.941 102.998,43.941 103.147 C 43.941 103.450,44.699 104.272,44.979 104.272 C 45.079 104.272,45.161 104.390,45.161 104.534 C 45.161 104.679,45.316 104.795,45.510 104.795 C 45.702 104.795,45.859 104.874,45.859 104.969 C 45.859 105.065,46.016 105.144,46.207 105.144 C 46.399 105.144,46.556 105.222,46.556 105.318 C 46.556 105.414,46.909 105.493,47.341 105.493 C 47.772 105.493,48.126 105.571,48.126 105.667 C 48.126 105.782,52.833 105.841,61.901 105.841 C 70.968 105.841,75.676 105.782,75.676 105.667 C 75.676 105.571,76.029 105.493,76.460 105.493 C 76.892 105.493,77.245 105.414,77.245 105.318 C 77.245 105.222,77.402 105.144,77.594 105.144 C 77.786 105.144,77.942 105.065,77.942 104.969 C 77.942 104.874,78.099 104.795,78.291 104.795 C 78.483 104.795,78.640 104.711,78.640 104.608 C 78.640 104.405,79.069 103.923,79.250 103.923 C 79.465 103.923,79.861 103.423,79.861 103.151 C 79.861 103.000,79.939 102.877,80.035 102.877 C 80.131 102.877,80.209 102.681,80.209 102.441 C 80.209 102.201,80.288 102.005,80.384 102.005 C 80.480 102.005,80.558 101.691,80.558 101.308 C 80.558 100.924,80.636 100.610,80.732 100.610 C 80.847 100.610,80.907 95.902,80.907 86.835 C 80.907 77.768,80.847 73.060,80.732 73.060 C 80.636 73.060,80.558 72.707,80.558 72.276 C 80.558 71.844,80.480 71.491,80.384 71.491 C 80.288 71.491,80.209 71.334,80.209 71.142 C 80.209 70.950,80.131 70.793,80.035 70.793 C 79.939 70.793,79.861 70.670,79.861 70.518 C 79.861 70.166,78.565 68.875,78.211 68.875 C 78.063 68.875,77.942 68.797,77.942 68.701 C 77.942 68.605,77.786 68.527,77.594 68.527 C 77.402 68.527,77.245 68.448,77.245 68.352 C 77.245 68.256,76.892 68.178,76.460 68.178 C 76.029 68.178,75.676 68.099,75.676 68.003 C 75.676 67.889,70.968 67.829,61.901 67.829 C 52.833 67.829,48.126 67.889,48.126 68.003 M320.488 68.701 C 320.488 68.797,320.174 68.875,319.791 68.875 C 319.407 68.875,319.093 68.954,319.093 69.050 C 319.093 69.146,318.897 69.224,318.657 69.224 C 318.418 69.224,318.221 69.303,318.221 69.398 C 318.221 69.494,318.065 69.573,317.873 69.573 C 317.681 69.573,317.524 69.659,317.524 69.764 C 317.524 69.870,317.289 70.176,317.001 70.445 C 316.713 70.713,316.478 71.050,316.478 71.193 C 316.478 71.336,316.360 71.499,316.216 71.554 C 316.072 71.609,315.955 71.814,315.955 72.008 C 315.955 72.203,315.876 72.363,315.780 72.363 C 315.684 72.363,315.606 72.677,315.606 73.060 C 315.606 73.444,315.527 73.758,315.432 73.758 C 315.317 73.758,315.257 78.466,315.257 87.533 C 315.257 96.600,315.317 101.308,315.432 101.308 C 315.527 101.308,315.606 101.661,315.606 102.092 C 315.606 102.524,315.684 102.877,315.780 102.877 C 315.876 102.877,315.955 103.034,315.955 103.226 C 315.955 103.420,316.071 103.575,316.216 103.575 C 316.362 103.575,316.478 103.730,316.478 103.923 C 316.478 104.115,316.556 104.272,316.652 104.272 C 316.748 104.272,316.827 104.354,316.827 104.454 C 316.827 104.734,317.649 105.493,317.952 105.493 C 318.100 105.493,318.221 105.571,318.221 105.667 C 318.221 105.763,318.418 105.841,318.657 105.841 C 318.897 105.841,319.093 105.920,319.093 106.016 C 319.093 106.112,319.407 106.190,319.791 106.190 C 320.174 106.190,320.488 106.269,320.488 106.364 C 320.488 106.479,325.196 106.539,334.263 106.539 C 343.330 106.539,348.038 106.479,348.038 106.364 C 348.038 106.269,348.391 106.190,348.823 106.190 C 349.255 106.190,349.608 106.112,349.608 106.016 C 349.608 105.920,349.765 105.841,349.956 105.841 C 350.148 105.841,350.305 105.763,350.305 105.667 C 350.305 105.571,350.466 105.493,350.662 105.493 C 351.033 105.493,351.874 104.772,351.874 104.454 C 351.874 104.354,351.953 104.272,352.049 104.272 C 352.145 104.272,352.223 104.115,352.223 103.923 C 352.223 103.731,352.302 103.575,352.398 103.575 C 352.493 103.575,352.572 103.418,352.572 103.226 C 352.572 103.032,352.688 102.877,352.833 102.877 C 353.027 102.877,353.095 102.674,353.095 102.092 C 353.095 101.661,353.173 101.308,353.269 101.308 C 353.384 101.308,353.444 96.600,353.444 87.533 C 353.444 78.466,353.384 73.758,353.269 73.758 C 353.173 73.758,353.095 73.444,353.095 73.060 C 353.095 72.556,353.022 72.363,352.833 72.363 C 352.671 72.363,352.572 72.198,352.572 71.927 C 352.572 71.687,352.493 71.491,352.398 71.491 C 352.302 71.491,352.223 71.365,352.223 71.212 C 352.223 71.059,351.988 70.713,351.700 70.445 C 351.412 70.176,351.177 69.870,351.177 69.764 C 351.177 69.659,350.981 69.573,350.741 69.573 C 350.501 69.573,350.305 69.494,350.305 69.398 C 350.305 69.303,350.148 69.224,349.956 69.224 C 349.765 69.224,349.608 69.146,349.608 69.050 C 349.608 68.954,349.255 68.875,348.823 68.875 C 348.391 68.875,348.038 68.797,348.038 68.701 C 348.038 68.586,343.330 68.527,334.263 68.527 C 325.196 68.527,320.488 68.586,320.488 68.701 M300.959 74.261 C 300.959 74.345,299.611 74.446,297.964 74.484 C 295.812 74.533,294.949 74.612,294.898 74.765 C 294.846 74.922,294.046 74.978,291.877 74.978 C 290.027 74.978,288.928 75.043,288.928 75.153 C 288.928 75.263,287.736 75.327,285.702 75.327 C 283.668 75.327,282.476 75.391,282.476 75.501 C 282.476 75.611,281.343 75.676,279.425 75.676 C 277.507 75.676,276.373 75.740,276.373 75.850 C 276.373 75.946,276.059 76.024,275.676 76.024 C 275.292 76.024,274.978 76.103,274.978 76.199 C 274.978 76.295,274.816 76.373,274.617 76.373 C 274.231 76.373,273.758 76.750,273.758 77.058 C 273.758 77.161,273.618 77.245,273.447 77.245 C 273.277 77.245,273.024 77.402,272.886 77.594 C 272.748 77.786,272.534 77.942,272.411 77.942 C 272.289 77.942,272.188 78.099,272.188 78.291 C 272.188 78.483,272.110 78.640,272.014 78.640 C 271.918 78.640,271.840 78.836,271.840 79.076 C 271.840 79.316,271.761 79.512,271.665 79.512 C 271.569 79.512,271.491 79.826,271.491 80.209 C 271.491 80.593,271.412 80.907,271.316 80.907 C 271.216 80.907,271.142 81.459,271.142 82.214 C 271.142 82.970,271.216 83.522,271.316 83.522 C 271.426 83.522,271.491 84.714,271.491 86.748 C 271.491 88.782,271.555 89.974,271.665 89.974 C 271.775 89.974,271.840 91.107,271.840 93.025 C 271.840 94.943,271.904 96.077,272.014 96.077 C 272.123 96.077,272.188 97.181,272.188 99.041 C 272.188 101.560,272.228 102.005,272.450 102.005 C 272.673 102.005,272.711 102.480,272.711 105.231 C 272.711 107.265,272.776 108.457,272.886 108.457 C 272.982 108.457,273.060 108.810,273.060 109.241 C 273.060 109.673,273.139 110.026,273.235 110.026 C 273.330 110.026,273.409 110.166,273.409 110.336 C 273.409 110.507,273.566 110.760,273.758 110.898 C 273.949 111.036,274.106 111.295,274.106 111.472 C 274.106 111.886,274.513 112.293,274.927 112.293 C 275.105 112.293,275.363 112.450,275.501 112.642 C 275.640 112.833,275.892 112.990,276.063 112.990 C 276.234 112.990,276.373 113.069,276.373 113.165 C 276.373 113.261,276.726 113.339,277.158 113.339 C 277.739 113.339,277.942 113.407,277.942 113.601 C 277.942 113.806,278.185 113.862,279.076 113.862 C 279.967 113.862,280.209 113.806,280.209 113.601 C 280.209 113.378,280.665 113.339,283.261 113.339 C 285.179 113.339,286.312 113.274,286.312 113.165 C 286.312 113.055,287.475 112.990,289.451 112.990 C 291.427 112.990,292.589 112.926,292.589 112.816 C 292.589 112.706,293.723 112.642,295.641 112.642 C 297.559 112.642,298.692 112.577,298.692 112.467 C 298.692 112.357,299.884 112.293,301.918 112.293 C 303.952 112.293,305.144 112.229,305.144 112.119 C 305.144 112.023,305.458 111.944,305.841 111.944 C 306.225 111.944,306.539 111.866,306.539 111.770 C 306.539 111.674,306.813 111.595,307.149 111.595 C 307.485 111.595,307.759 111.511,307.759 111.409 C 307.759 111.131,308.218 110.724,308.532 110.724 C 308.682 110.724,308.806 110.645,308.806 110.549 C 308.806 110.453,308.923 110.375,309.067 110.375 C 309.211 110.375,309.329 110.235,309.329 110.065 C 309.329 109.894,309.486 109.641,309.677 109.503 C 309.869 109.365,310.026 109.073,310.026 108.854 C 310.026 108.636,310.105 108.457,310.201 108.457 C 310.296 108.457,310.375 108.143,310.375 107.759 C 310.375 107.376,310.453 107.062,310.549 107.062 C 310.648 107.062,310.724 106.568,310.724 105.929 C 310.724 105.289,310.648 104.795,310.549 104.795 C 310.439 104.795,310.375 103.604,310.375 101.569 C 310.375 99.535,310.310 98.344,310.201 98.344 C 310.091 98.344,310.026 97.210,310.026 95.292 C 310.026 93.374,309.961 92.241,309.852 92.241 C 309.742 92.241,309.677 91.136,309.677 89.276 C 309.677 87.416,309.612 86.312,309.503 86.312 C 309.393 86.312,309.329 85.121,309.329 83.086 C 309.329 80.335,309.290 79.861,309.067 79.861 C 308.866 79.861,308.806 79.638,308.806 78.901 C 308.806 78.374,308.727 77.942,308.631 77.942 C 308.535 77.942,308.457 77.786,308.457 77.594 C 308.457 77.402,308.378 77.245,308.282 77.245 C 308.187 77.245,308.108 77.127,308.108 76.983 C 308.108 76.840,308.030 76.722,307.934 76.722 C 307.838 76.722,307.759 76.599,307.759 76.448 C 307.759 76.077,307.333 75.676,306.938 75.676 C 306.761 75.676,306.503 75.519,306.364 75.327 C 306.226 75.135,305.982 74.978,305.821 74.978 C 305.661 74.978,305.485 74.861,305.430 74.717 C 305.363 74.544,305.090 74.455,304.626 74.455 C 304.240 74.455,303.923 74.377,303.923 74.281 C 303.923 74.178,303.313 74.106,302.441 74.106 C 301.626 74.106,300.959 74.176,300.959 74.261 M206.068 76.417 L 206.016 77.332 204.895 77.456 C 204.278 77.524,202.277 77.661,200.448 77.762 C 198.619 77.862,196.818 77.995,196.444 78.057 L 195.766 78.170 195.885 80.803 C 195.950 82.251,196.052 83.859,196.111 84.376 L 196.218 85.318 198.763 85.169 C 200.163 85.087,202.171 85.016,203.226 85.012 L 205.144 85.004 205.196 86.094 L 205.248 87.184 204.498 87.208 C 202.771 87.262,198.631 87.514,197.317 87.645 L 196.291 87.747 196.413 89.340 C 196.674 92.737,196.838 96.867,196.718 96.987 C 196.649 97.056,196.032 97.165,195.348 97.229 L 194.104 97.344 194.008 96.231 C 193.685 92.498,193.546 90.449,193.548 89.451 C 193.549 88.827,193.473 87.337,193.379 86.138 C 193.130 82.961,192.856 78.562,192.820 77.158 L 192.789 75.937 194.084 75.815 C 195.229 75.706,197.270 75.575,204.010 75.174 C 206.125 75.049,206.146 75.062,206.068 76.417 M65.332 75.987 C 67.256 76.926,67.790 77.265,68.370 77.921 C 69.243 78.908,69.889 80.265,69.956 81.255 L 70.009 82.040 68.655 82.091 C 67.188 82.146,67.240 82.181,67.051 81.042 C 66.467 77.525,59.700 76.808,58.317 80.116 C 57.346 82.441,58.673 83.992,62.674 85.208 C 67.844 86.779,69.796 88.408,70.043 91.356 C 70.695 99.127,56.450 100.109,54.640 92.418 C 54.358 91.218,54.416 91.167,55.987 91.230 L 57.275 91.282 57.376 91.908 C 58.113 96.467,67.132 96.581,67.132 92.032 C 67.132 89.883,66.271 89.178,61.925 87.766 C 57.395 86.295,55.804 85.001,55.255 82.342 C 54.659 79.459,56.857 76.555,60.165 75.854 C 61.070 75.662,64.867 75.760,65.332 75.987 M342.075 77.812 L 342.023 78.901 336.792 78.989 L 331.561 79.076 331.513 82.279 C 331.452 86.378,330.914 85.963,336.290 85.963 L 340.715 85.963 340.715 87.097 L 340.715 88.230 336.370 88.230 C 333.980 88.230,331.901 88.278,331.749 88.336 C 331.510 88.428,331.473 88.924,331.473 92.082 L 331.473 95.723 336.835 95.769 L 342.197 95.815 342.197 96.949 L 342.197 98.082 335.484 98.082 L 328.771 98.082 328.726 87.402 L 328.681 76.722 335.404 76.722 L 342.126 76.722 342.075 77.812 M93.810 81.953 C 93.810 82.049,93.535 82.127,93.200 82.127 C 92.864 82.127,92.589 82.206,92.589 82.302 C 92.589 82.398,92.450 82.476,92.279 82.476 C 92.108 82.476,91.856 82.633,91.718 82.825 C 91.579 83.017,91.367 83.173,91.245 83.173 C 90.916 83.173,90.323 83.735,90.323 84.046 C 90.323 84.195,90.166 84.430,89.974 84.568 C 89.769 84.716,89.625 85.020,89.625 85.304 C 89.625 85.571,89.547 85.789,89.451 85.789 C 89.347 85.789,89.276 86.428,89.276 87.358 C 89.276 88.288,89.205 88.928,89.102 88.928 C 88.991 88.928,88.928 90.231,88.928 92.488 C 88.928 95.181,88.875 96.065,88.710 96.120 C 88.547 96.174,88.477 97.129,88.433 99.884 C 88.400 101.949,88.304 103.575,88.215 103.575 C 88.124 103.575,88.056 105.110,88.056 107.149 C 88.056 109.416,87.992 110.724,87.881 110.724 C 87.775 110.724,87.707 111.537,87.707 112.816 C 87.707 114.095,87.775 114.908,87.881 114.908 C 87.977 114.908,88.056 115.183,88.056 115.519 C 88.056 115.854,88.134 116.129,88.230 116.129 C 88.326 116.129,88.405 116.236,88.405 116.366 C 88.405 116.497,88.601 116.751,88.840 116.931 C 89.080 117.111,89.276 117.396,89.276 117.565 C 89.276 117.734,89.355 117.873,89.451 117.873 C 89.547 117.873,89.625 117.990,89.625 118.134 C 89.625 118.280,89.780 118.396,89.974 118.396 C 90.166 118.396,90.323 118.474,90.323 118.570 C 90.323 118.666,90.440 118.745,90.584 118.745 C 90.728 118.745,90.846 118.823,90.846 118.919 C 90.846 119.015,91.081 119.093,91.369 119.093 C 91.656 119.093,91.892 119.172,91.892 119.268 C 91.892 119.368,92.444 119.442,93.200 119.442 C 93.955 119.442,94.507 119.516,94.507 119.616 C 94.507 119.727,95.815 119.791,98.082 119.791 C 100.349 119.791,101.656 119.855,101.656 119.965 C 101.656 120.076,102.958 120.139,105.212 120.139 C 108.212 120.139,108.784 120.180,108.869 120.401 C 108.953 120.621,109.517 120.663,112.452 120.663 C 114.585 120.663,115.976 120.730,116.042 120.837 C 116.106 120.941,117.206 121.011,118.755 121.011 C 120.375 121.011,121.360 120.945,121.360 120.837 C 121.360 120.741,121.517 120.663,121.709 120.663 C 121.903 120.663,122.058 120.546,122.058 120.401 C 122.058 120.256,122.213 120.139,122.406 120.139 C 122.598 120.139,122.755 120.061,122.755 119.965 C 122.755 119.869,122.915 119.791,123.110 119.791 C 123.569 119.791,124.673 118.686,124.673 118.227 C 124.673 118.032,124.752 117.873,124.847 117.873 C 124.943 117.873,125.022 117.716,125.022 117.524 C 125.022 117.330,125.138 117.175,125.283 117.175 C 125.493 117.175,125.545 116.914,125.545 115.867 C 125.545 115.112,125.619 114.560,125.719 114.560 C 125.830 114.560,125.894 113.194,125.894 110.811 C 125.894 108.428,125.957 107.062,126.068 107.062 C 126.179 107.062,126.242 105.754,126.242 103.487 C 126.242 101.221,126.306 99.913,126.417 99.913 C 126.527 99.913,126.591 98.576,126.591 96.251 C 126.591 93.926,126.655 92.589,126.765 92.589 C 126.873 92.589,126.940 91.659,126.940 90.148 C 126.940 88.637,126.873 87.707,126.765 87.707 C 126.670 87.707,126.591 87.472,126.591 87.184 C 126.591 86.896,126.513 86.661,126.417 86.661 C 126.321 86.661,126.242 86.465,126.242 86.225 C 126.242 85.985,126.164 85.789,126.068 85.789 C 125.972 85.789,125.894 85.666,125.894 85.515 C 125.894 85.202,125.486 84.743,125.209 84.743 C 125.106 84.743,125.022 84.664,125.022 84.568 C 125.022 84.473,124.883 84.394,124.714 84.394 C 124.545 84.394,124.260 84.198,124.080 83.958 C 123.864 83.671,123.582 83.522,123.254 83.522 C 122.979 83.522,122.755 83.444,122.755 83.348 C 122.755 83.245,122.145 83.173,121.273 83.173 C 120.401 83.173,119.791 83.102,119.791 82.999 C 119.791 82.889,118.483 82.825,116.216 82.825 C 113.949 82.825,112.642 82.761,112.642 82.650 C 112.642 82.540,111.334 82.476,109.067 82.476 C 106.800 82.476,105.493 82.412,105.493 82.302 C 105.493 82.191,104.127 82.127,101.744 82.127 C 99.361 82.127,97.995 82.064,97.995 81.953 C 97.995 81.846,97.181 81.779,95.902 81.779 C 94.624 81.779,93.810 81.846,93.810 81.953 M287.957 84.699 C 288.086 86.264,288.500 92.934,288.766 97.729 C 288.867 99.549,289.008 101.315,289.079 101.653 C 289.232 102.384,288.744 102.354,294.808 102.006 C 297.132 101.873,299.064 101.799,299.102 101.841 C 299.229 101.983,299.338 103.725,299.230 103.899 C 299.062 104.171,286.708 104.912,286.461 104.665 C 286.300 104.504,285.988 99.964,285.263 87.205 C 285.029 83.076,284.938 83.348,286.550 83.348 L 287.845 83.348 287.957 84.699 M163.969 83.784 C 163.881 84.013,162.305 84.045,151.246 84.045 C 142.946 84.045,138.622 84.105,138.622 84.220 C 138.622 84.316,138.466 84.394,138.274 84.394 C 138.082 84.394,137.925 84.473,137.925 84.568 C 137.925 84.664,137.768 84.743,137.576 84.743 C 137.384 84.743,137.228 84.821,137.228 84.917 C 137.228 85.013,137.067 85.092,136.871 85.092 C 136.500 85.092,135.658 85.812,135.658 86.130 C 135.658 86.230,135.580 86.312,135.484 86.312 C 135.388 86.312,135.310 86.469,135.310 86.661 C 135.310 86.853,135.231 87.010,135.135 87.010 C 135.039 87.010,134.961 87.167,134.961 87.358 C 134.961 87.550,134.882 87.707,134.786 87.707 C 134.690 87.707,134.612 88.139,134.612 88.666 C 134.612 89.402,134.551 89.625,134.350 89.625 C 134.141 89.625,134.089 89.887,134.089 90.933 C 134.089 91.979,134.141 92.241,134.350 92.241 C 134.581 92.241,134.612 93.742,134.612 104.708 C 134.612 112.903,134.672 117.175,134.786 117.175 C 134.882 117.175,134.961 117.450,134.961 117.786 C 134.961 118.121,135.039 118.396,135.135 118.396 C 135.231 118.396,135.310 118.553,135.310 118.745 C 135.310 118.936,135.388 119.093,135.484 119.093 C 135.580 119.093,135.658 119.214,135.658 119.362 C 135.658 119.715,136.949 121.011,137.301 121.011 C 137.452 121.011,137.576 121.090,137.576 121.186 C 137.576 121.282,137.733 121.360,137.925 121.360 C 138.117 121.360,138.274 121.439,138.274 121.534 C 138.274 121.649,143.301 121.709,153.008 121.709 C 162.714 121.709,167.742 121.649,167.742 121.534 C 167.742 121.439,167.977 121.360,168.265 121.360 C 168.553 121.360,168.788 121.282,168.788 121.186 C 168.788 121.090,168.951 121.011,169.149 121.011 C 169.535 121.011,170.009 120.634,170.009 120.326 C 170.009 120.224,170.132 120.139,170.283 120.139 C 170.635 120.139,171.055 119.720,171.055 119.367 C 171.055 119.217,171.139 119.093,171.242 119.093 C 171.596 119.093,171.927 118.594,171.927 118.060 C 171.927 117.765,172.005 117.524,172.101 117.524 C 172.216 117.524,172.276 112.584,172.276 103.051 C 172.276 93.519,172.216 88.579,172.101 88.579 C 172.005 88.579,171.927 88.304,171.927 87.969 C 171.927 87.633,171.848 87.358,171.752 87.358 C 171.656 87.358,171.578 87.201,171.578 87.010 C 171.578 86.816,171.462 86.661,171.316 86.661 C 171.170 86.661,171.055 86.505,171.055 86.306 C 171.055 85.892,169.969 84.743,169.579 84.743 C 169.432 84.743,169.311 84.664,169.311 84.568 C 169.311 84.473,169.115 84.394,168.875 84.394 C 168.636 84.394,168.439 84.316,168.439 84.220 C 168.439 84.124,168.008 84.045,167.480 84.045 C 166.744 84.045,166.521 83.985,166.521 83.784 C 166.521 83.576,166.269 83.522,165.295 83.522 C 164.366 83.522,164.045 83.586,163.969 83.784 M110.328 90.424 C 113.823 91.146,116.303 93.919,116.303 97.106 L 116.303 97.820 115.301 97.818 C 113.692 97.814,113.607 97.760,113.366 96.594 C 112.292 91.393,104.790 91.137,103.334 96.251 C 103.266 96.491,103.087 97.119,102.937 97.646 C 102.566 98.946,102.504 104.943,102.851 105.841 C 103.644 107.892,104.818 109.246,106.149 109.644 C 108.083 110.224,110.956 109.685,111.760 108.592 C 112.261 107.911,112.816 106.880,112.816 106.630 C 112.816 105.629,115.112 104.940,115.881 105.710 C 116.290 106.119,114.832 109.193,113.707 110.293 C 111.955 112.006,107.665 112.837,105.348 111.912 C 100.965 110.164,99.224 106.667,99.702 100.581 C 100.308 92.884,104.205 89.159,110.328 90.424 M148.752 99.479 C 148.856 107.007,148.914 107.919,149.353 108.902 C 150.788 112.110,156.377 112.258,158.152 109.136 L 158.588 108.370 158.675 100.174 L 158.762 91.979 160.093 91.929 L 161.423 91.878 161.552 99.437 C 161.678 106.826,161.659 107.424,161.247 108.925 C 159.702 114.553,149.880 115.454,146.940 110.238 C 146.180 108.891,146.137 108.377,146.084 100.087 L 146.033 92.153 147.079 92.050 C 147.655 91.994,148.243 91.955,148.387 91.965 C 148.614 91.981,148.663 92.990,148.752 99.479 " stroke="none" fill="#fbebbb" fill-rule="evenodd"></path></g></svg>